<?xml version="1.0" standalone="no"?>
<!DOCTYPE svg PUBLIC "-//W3C//DTD SVG 20010904//EN"
 "http://www.w3.org/TR/2001/REC-SVG-20010904/DTD/svg10.dtd">
<svg version="1.0" xmlns="http://www.w3.org/2000/svg"
 width="1104.000000pt" height="325.000000pt" viewBox="0 0 1104.000000 325.000000"
 preserveAspectRatio="xMidYMid meet">
<metadata>
Created by potrace 1.16, written by Peter Selinger 2001-2019
</metadata>
<g transform="translate(0.000000,325.000000) scale(0.100000,-0.100000)"
fill="#000000" stroke="none">
<path d="M2889 3187 c-25 -23 -77 -64 -116 -90 -69 -47 -93 -78 -93 -117 0
-22 17 -24 116 -20 29 1 54 -3 58 -8 3 -5 -18 -26 -47 -47 -53 -38 -117 -112
-117 -134 0 -44 89 -4 176 78 l66 63 44 -24 c25 -12 56 -32 70 -43 l25 -20
-60 3 c-44 3 -71 -2 -106 -17 -26 -12 -54 -21 -62 -21 -7 0 -32 -10 -55 -21
-40 -20 -41 -22 -22 -36 34 -26 82 -43 125 -43 40 0 41 -1 34 -27 -9 -39 -19
-48 -69 -67 l-44 -17 -45 32 c-25 17 -52 29 -60 26 -25 -9 -50 -79 -50 -139 0
-32 3 -61 7 -65 4 -4 21 0 39 9 95 49 209 91 218 80 4 -4 14 -65 23 -137 10
-71 19 -131 21 -134 2 -2 19 5 37 16 32 19 33 21 46 128 18 149 19 152 41 158
11 2 51 -2 90 -10 63 -13 74 -13 105 2 87 42 29 81 -154 102 -57 7 -65 11 -68
30 -2 15 10 36 36 65 l40 42 38 -29 c22 -16 42 -34 46 -40 11 -18 120 -64 162
-69 20 -3 64 -13 96 -22 33 -9 75 -14 94 -11 36 6 116 51 116 66 0 9 -57 21
-103 21 -91 0 -455 172 -545 257 -7 7 -18 13 -24 13 -6 0 -6 6 2 15 7 8 19 15
26 15 8 0 14 4 14 9 0 5 8 12 18 15 62 23 109 68 118 114 6 28 4 32 -22 38
-16 4 -52 2 -82 -4 -52 -11 -53 -11 -80 19 -42 46 -69 45 -123 -4z"/>
<path d="M7380 3207 c-3 -3 -42 -8 -88 -11 -45 -3 -89 -9 -96 -13 -8 -4 -30
-29 -50 -56 l-36 -47 42 6 c24 3 64 14 90 25 65 26 184 43 242 35 45 -7 47 -9
33 -24 -11 -10 -43 -17 -94 -21 -105 -8 -111 -14 -72 -59 l32 -37 -34 -7 c-19
-5 -65 -6 -102 -3 l-69 6 6 -28 c4 -15 9 -40 11 -54 3 -14 12 -46 21 -70 8
-24 18 -55 20 -69 3 -14 14 -56 26 -93 11 -37 19 -69 17 -71 -2 -2 -50 -6
-106 -10 l-102 -6 -3 52 -3 53 -50 0 c-143 -2 -235 -17 -235 -40 0 -16 65 -45
103 -45 18 0 38 -4 45 -8 14 -9 -2 -24 -64 -61 -29 -18 -32 -24 -32 -70 0 -38
4 -51 15 -51 15 0 97 44 123 66 22 18 126 44 178 44 48 0 210 -36 228 -51 6
-5 31 -16 55 -23 24 -8 76 -27 114 -41 109 -42 284 -85 345 -85 59 0 151 28
235 72 105 55 109 74 10 52 -33 -7 -87 -13 -120 -13 -64 -1 -234 29 -301 52
-22 8 -80 25 -130 37 -49 12 -93 26 -98 30 -15 15 34 143 70 180 19 20 34 39
34 42 0 4 -13 9 -30 13 -16 4 -30 10 -30 15 0 4 14 20 30 33 17 14 30 30 30
35 0 6 -18 17 -41 26 -22 9 -37 21 -34 26 8 13 74 13 114 -1 26 -9 32 -16 27
-33 -2 -11 -8 -39 -11 -61 -4 -22 -17 -69 -29 -105 -21 -60 -35 -180 -22 -180
23 0 86 57 94 84 5 17 20 67 32 111 13 44 34 110 48 147 25 66 25 68 8 113
-10 25 -21 45 -24 45 -4 0 -26 -18 -49 -39 l-41 -38 -71 16 c-39 9 -71 21 -71
27 0 13 53 64 66 64 6 0 17 12 24 26 28 52 -22 84 -144 91 -44 3 -83 3 -86 0z"/>
<path d="M2455 3192 c-62 -7 -135 -33 -145 -52 -15 -28 -12 -80 5 -86 8 -3 47
1 87 9 142 30 148 30 148 7 0 -20 -25 -48 -45 -52 -49 -8 -201 -61 -207 -73
-7 -11 -23 -13 -76 -8 -44 4 -76 1 -90 -6 -22 -12 -22 -12 11 -41 45 -39 91
-128 113 -215 9 -38 20 -135 24 -215 9 -178 11 -184 59 -175 20 4 41 11 46 16
6 6 10 67 10 141 l0 131 60 22 c121 44 157 67 182 114 14 27 23 61 23 88 0 41
-2 45 -37 60 -43 18 -92 12 -220 -26 -40 -11 -75 -21 -78 -21 -10 0 -5 49 6
55 6 4 50 10 97 14 111 10 141 24 170 82 25 51 60 214 48 226 -8 8 -136 12
-191 5z"/>
<path d="M6073 3166 c-27 -23 -27 -26 -16 -67 6 -24 10 -45 9 -46 -1 -1 -47
-9 -103 -18 -55 -8 -108 -17 -117 -21 -25 -10 -19 -49 19 -122 19 -37 42 -98
52 -136 l17 -69 78 6 78 5 0 -122 c0 -117 19 -226 39 -226 21 0 51 43 51 73 0
18 9 84 22 148 l22 115 56 27 c32 15 68 41 82 59 38 50 84 146 106 218 l20 65
-35 3 c-44 4 -55 -6 -84 -73 l-24 -55 -46 0 c-54 0 -96 26 -86 53 4 12 19 17
49 18 24 0 52 4 63 8 15 6 7 12 -44 32 -58 22 -64 27 -84 74 -12 28 -26 56
-30 63 -13 20 -64 14 -94 -12z"/>
<path d="M4300 3166 l-55 -12 2 -39 c2 -21 10 -49 19 -62 8 -14 13 -27 10 -30
-3 -3 -54 -8 -113 -10 -60 -2 -114 -6 -120 -8 -18 -6 -16 -76 3 -103 20 -29
35 -28 146 8 122 40 121 40 113 -12 -8 -53 -27 -68 -81 -68 -66 0 -139 -17
-207 -48 -34 -16 -82 -37 -106 -48 -54 -23 -101 -66 -101 -93 0 -24 45 -69 78
-78 15 -3 30 1 45 14 45 41 112 72 162 75 l50 3 13 -65 c7 -35 10 -70 8 -76
-3 -7 -43 -27 -90 -44 l-86 -33 0 -43 c0 -41 2 -44 43 -62 37 -17 46 -17 77
-5 35 14 103 45 151 69 80 40 121 47 209 34 47 -7 116 -21 154 -31 39 -10 72
-16 75 -14 13 14 58 130 54 141 -4 10 -83 36 -115 39 -17 1 -18 16 -2 47 9 18
20 44 24 58 l6 24 217 -3 217 -3 0 41 0 41 -55 0 c-30 0 -94 9 -142 21 -130
30 -185 38 -318 45 -66 3 -121 7 -122 8 -2 2 -6 24 -10 51 l-6 48 49 -7 c27
-4 63 -9 81 -13 35 -5 39 2 45 72 l3 30 -92 3 -92 3 -10 37 c-5 20 -14 53 -18
72 -11 41 -27 45 -113 26z m210 -526 c0 -40 -4 -62 -12 -65 -7 -2 -44 -6 -83
-9 -38 -3 -82 -8 -97 -12 -32 -7 -44 11 -54 84 l-6 51 78 4 c44 1 100 4 127 5
l47 2 0 -60z"/>
<path d="M5440 3130 c-77 -6 -120 -29 -120 -65 0 -27 26 -39 68 -31 15 3 88 8
162 11 161 6 230 14 230 25 0 43 -174 74 -340 60z"/>
<path d="M6848 3053 c-10 -11 -18 -27 -18 -36 0 -15 49 -57 68 -57 5 0 29 -9
53 -19 24 -10 59 -22 78 -26 l34 -7 -7 42 c-8 53 -30 96 -53 104 -10 4 -45 10
-78 13 -51 4 -63 2 -77 -14z"/>
<path d="M5738 2995 c-3 -4 -75 -11 -160 -16 -169 -10 -179 -12 -262 -29 -55
-11 -96 -37 -96 -61 0 -8 40 -10 133 -8 l132 4 7 -70 c4 -38 8 -143 8 -232 1
-92 5 -163 10 -163 15 0 39 55 47 102 3 24 6 114 5 200 -1 129 2 160 14 173
12 11 38 15 108 15 111 0 136 12 121 57 -7 19 -18 29 -36 31 -13 2 -28 0 -31
-3z"/>
<path d="M6850 2871 c-13 -9 -13 -15 5 -48 17 -31 27 -39 60 -44 22 -4 64 -4
93 -1 50 5 53 7 50 30 -5 41 -47 64 -125 69 -38 2 -75 -1 -83 -6z"/>
<path d="M5635 2840 c-26 -29 -15 -159 22 -251 16 -38 31 -69 34 -69 13 0 30
56 30 100 1 25 -7 74 -16 110 -10 36 -19 75 -20 87 -6 46 -22 54 -50 23z"/>
<path d="M5342 2698 c-24 -141 -28 -213 -13 -222 16 -10 60 53 75 107 8 29 17
96 20 150 l5 97 -32 0 -33 0 -22 -132z"/>
<path d="M1380 2308 c-90 -32 -136 -95 -181 -253 -14 -47 -38 -100 -59 -130
-49 -69 -90 -133 -90 -141 0 -4 -11 -22 -25 -40 -14 -18 -25 -37 -25 -42 0 -5
-6 -15 -14 -21 -7 -6 -34 -46 -59 -89 -30 -52 -80 -112 -154 -187 l-110 -110
-104 -33 c-57 -18 -142 -36 -189 -41 -47 -4 -100 -16 -118 -25 -17 -9 -33 -16
-34 -14 -2 1 -22 -11 -45 -25 -24 -15 -46 -27 -50 -27 -15 0 -63 -51 -63 -66
0 -8 -9 -32 -20 -54 -40 -77 -24 -147 59 -260 60 -83 159 -154 226 -164 55 -9
56 -14 15 -127 -31 -88 -32 -85 20 -113 41 -22 225 -66 276 -66 81 0 154 53
226 163 52 80 116 139 174 161 120 45 209 76 233 79 14 3 53 9 86 15 33 6 107
16 165 22 58 6 143 18 189 27 53 9 105 12 138 8 49 -6 57 -11 93 -57 22 -27
40 -55 40 -62 0 -7 7 -28 16 -45 9 -18 20 -66 25 -106 9 -79 17 -96 117 -234
l54 -73 56 7 c61 8 109 28 183 78 41 28 47 37 57 87 17 81 15 154 -8 256 -11
49 -20 105 -20 125 0 34 3 37 35 43 29 6 35 11 35 31 0 14 6 25 13 25 6 1 30
19 52 41 l40 40 -17 30 -17 30 28 5 c23 5 31 14 44 58 23 70 23 70 -20 85 -87
29 -153 56 -153 64 0 4 7 10 15 13 8 4 15 11 15 16 0 10 -45 7 -117 -7 -27 -5
-27 -5 -5 7 41 21 20 39 -91 76 -168 57 -201 100 -287 363 -24 74 -59 177 -78
229 -19 52 -41 112 -49 134 -30 85 -48 107 -177 220 -42 37 -87 67 -119 78
-65 23 -155 21 -227 -4z m213 -789 c28 -62 81 -228 74 -235 -2 -2 -21 3 -43
12 -26 11 -80 18 -161 22 -68 2 -123 7 -123 9 0 3 7 30 16 61 22 73 54 125
118 184 l51 47 21 -23 c12 -12 33 -47 47 -77z"/>
<path d="M5685 2204 c-60 -18 -125 -36 -144 -39 -19 -3 -58 -12 -87 -21 -29
-8 -82 -14 -121 -13 -85 3 -131 -7 -160 -34 -19 -17 -23 -31 -23 -82 0 -34 3
-90 6 -123 6 -57 11 -66 56 -112 73 -75 84 -80 143 -69 28 5 101 11 164 12
l114 2 20 -33 c11 -18 29 -70 40 -115 17 -71 21 -118 22 -342 1 -143 7 -307
14 -365 9 -94 24 -249 38 -412 4 -41 10 -58 20 -58 12 0 13 15 8 83 -5 63 -3
90 9 117 l15 35 1 -87 c0 -48 5 -90 10 -93 6 -3 10 -2 10 2 0 5 7 18 15 29 13
17 14 2 12 -131 -2 -120 2 -162 16 -207 10 -32 21 -58 26 -58 5 0 18 23 30 50
12 28 39 87 61 133 21 45 43 109 49 143 5 34 21 94 35 135 31 91 34 142 51
899 4 153 12 203 46 295 32 86 38 87 414 99 180 6 254 30 175 58 -17 5 -35 18
-40 28 -9 17 -4 19 48 25 81 9 83 10 76 42 -13 55 -30 69 -117 97 -47 14 -92
26 -101 26 -9 0 -49 9 -89 20 -39 11 -92 23 -117 26 -25 2 -70 9 -100 14 -30
5 -122 14 -205 20 -82 6 -175 18 -206 25 -78 20 -108 18 -234 -21z"/>
<path d="M2460 2008 c0 -28 -5 -79 -11 -113 -9 -55 -8 -73 11 -146 13 -46 29
-94 36 -106 8 -12 14 -27 14 -32 0 -11 54 -99 150 -243 42 -62 85 -133 96
-158 12 -25 31 -65 42 -90 30 -65 70 -184 78 -233 3 -23 12 -78 18 -121 10
-66 16 -83 38 -99 32 -24 127 -47 197 -47 49 0 57 3 84 33 39 43 94 128 130
202 16 33 44 80 61 105 18 25 41 65 50 90 10 25 39 76 64 113 26 38 56 83 67
101 66 106 125 174 174 199 75 37 151 90 196 136 34 36 39 47 41 90 1 55 -44
188 -72 208 -28 21 -64 76 -64 99 0 30 -13 37 -79 40 -62 3 -84 -6 -103 -40
-39 -70 -71 -125 -93 -161 -13 -22 -32 -53 -41 -69 -9 -16 -44 -66 -77 -111
-74 -98 -188 -261 -203 -290 -20 -38 -63 -103 -72 -109 -4 -2 -17 21 -27 52
-23 73 -123 290 -190 413 -22 41 -138 156 -184 183 -10 6 -56 36 -102 67 -73
49 -171 89 -217 89 -8 0 -12 -19 -12 -52z"/>
<path d="M7960 1958 c-28 -46 -55 -92 -58 -103 -4 -11 -5 -117 -3 -236 2 -137
-1 -243 -9 -287 -13 -77 -5 -113 42 -203 22 -42 23 -53 23 -297 0 -231 2 -255
18 -267 15 -11 16 -13 2 -19 -9 -3 -15 -18 -15 -40 0 -42 30 -186 39 -186 9 0
30 50 51 125 17 60 48 104 74 105 4 0 28 12 52 28 l44 27 -6 91 c-6 87 9 239
26 258 9 9 130 -55 150 -79 7 -8 17 -15 22 -15 15 0 119 -80 183 -140 95 -90
163 -130 230 -137 41 -4 59 -11 62 -22 4 -17 56 -51 77 -51 7 0 31 -14 52 -31
55 -44 130 -91 194 -121 73 -34 75 -35 230 -75 105 -27 145 -33 180 -28 25 4
63 6 85 4 88 -6 259 -2 420 9 255 17 341 36 479 101 47 22 98 44 113 47 35 9
93 46 160 102 29 23 73 50 98 58 25 9 45 20 45 24 0 14 -439 26 -760 21 -149
-3 -241 1 -390 18 -218 24 -299 40 -380 75 -96 42 -134 55 -184 66 -96 21
-230 83 -337 157 -42 28 -89 55 -105 59 -38 8 -108 48 -160 90 -22 18 -54 41
-70 51 -110 67 -109 66 -66 99 39 31 212 120 285 148 55 21 126 58 191 99 62
40 189 165 212 208 13 27 14 38 4 74 -32 114 -192 199 -451 239 -59 9 -131 16
-160 16 -78 0 -228 -30 -269 -55 -19 -11 -52 -28 -73 -38 l-37 -17 -46 59
c-51 65 -62 71 -150 71 l-61 0 -53 -82z m996 -132 c13 -9 32 -25 43 -37 19
-21 19 -21 -27 -65 -40 -38 -75 -63 -197 -142 -36 -22 -167 -82 -182 -82 -7 0
-31 -9 -51 -19 -21 -11 -64 -26 -96 -34 l-58 -16 6 32 c3 18 8 67 12 109 6 69
10 80 38 106 56 54 198 125 321 162 43 13 163 4 191 -14z"/>
<path d="M4570 1938 c-19 -28 -40 -58 -45 -67 -63 -99 -147 -220 -164 -235
-12 -11 -21 -23 -21 -28 0 -5 -28 -46 -62 -91 -35 -45 -71 -98 -81 -118 -26
-50 -78 -106 -111 -118 -15 -6 -103 -11 -200 -11 l-173 0 -16 -69 c-10 -38
-17 -86 -17 -107 0 -51 36 -123 69 -138 14 -6 40 -20 56 -30 17 -11 48 -31 70
-45 22 -14 41 -26 43 -27 6 -4 -20 -48 -41 -72 -20 -21 -55 -134 -56 -179 -1
-29 44 -53 99 -53 80 0 198 91 270 210 46 76 63 90 155 131 98 44 178 56 451
65 l200 7 32 -34 c17 -18 54 -79 82 -136 37 -74 63 -113 97 -143 25 -22 50
-40 55 -40 28 0 103 47 147 91 43 44 51 57 51 90 0 47 -45 192 -65 209 -30 25
-28 49 10 93 l36 42 -48 5 c-26 3 -56 10 -66 16 -21 12 -88 122 -143 234 -20
41 -41 84 -47 95 -40 75 -78 161 -101 227 -55 162 -111 214 -266 252 -153 37
-158 36 -200 -26z m173 -406 c8 -15 30 -54 48 -87 19 -33 44 -86 56 -117 l21
-58 -73 0 c-58 0 -78 -4 -99 -21 l-26 -20 -74 25 c-41 14 -81 26 -90 26 -45 0
4 69 189 265 24 25 29 24 48 -13z"/>
<path d="M7130 1949 c-128 -31 -143 -42 -183 -123 -27 -54 -63 -100 -152 -193
-131 -138 -148 -160 -212 -284 -51 -97 -78 -119 -152 -119 -39 0 -41 -2 -53
-42 -21 -71 -16 -175 12 -242 l24 -59 -33 -59 c-18 -32 -34 -67 -36 -76 -11
-60 -16 -147 -10 -180 6 -37 10 -41 58 -57 29 -9 79 -19 112 -22 60 -5 60 -5
103 37 31 29 49 39 60 35 44 -18 49 -17 65 22 8 22 21 77 28 122 12 76 16 85
53 122 33 32 48 39 80 39 21 0 91 9 155 19 64 11 150 21 191 22 135 2 121 11
159 -99 63 -180 98 -232 186 -274 83 -39 136 -38 177 2 l30 31 -7 162 c-8 198
-11 223 -30 277 -8 23 -15 61 -15 83 0 49 -34 122 -66 144 -13 8 -24 21 -24
28 0 41 -98 287 -120 300 -5 3 -10 14 -10 24 0 43 -145 311 -169 311 -4 0 -16
8 -27 18 -17 16 -102 54 -114 51 -3 -1 -39 -10 -80 -20z m108 -570 c18 -52 37
-115 41 -140 l8 -47 -40 14 c-48 17 -78 18 -128 3 -43 -13 -127 4 -136 28 -3
7 7 30 23 51 44 59 177 193 189 189 5 -2 25 -46 43 -98z"/>
</g>
</svg>
